<svg width="143" height="200" viewBox="0 0 143 200" fill="none" xmlns="http://www.w3.org/2000/svg">
<g id="Group 192">
<g id="Group 186">
<rect id="Rectangle 278" x="8" y="38.4463" width="127.079" height="140.317" rx="20" stroke="#E5E5E5" stroke-width="15"/>
</g>
<path id="Rectangle 279" d="M43 37C43 28.619 43 24.4285 44.2362 21.0777C46.2613 15.5884 50.5884 11.2613 56.0777 9.23617C59.4285 8 63.619 8 72 8V8C80.381 8 84.5715 8 87.9223 9.23617C93.4116 11.2613 97.7387 15.5884 99.7638 21.0777C101 24.4285 101 28.619 101 37V38H43V37Z" stroke="#E5E5E5" stroke-width="15"/>
<g id="Group 188">
<path id="Vector 1" d="M98.9492 108.604L45.9996 108.604" stroke="#E5E5E5" stroke-width="15" stroke-linecap="round"/>
<path id="Vector 2" d="M72 82.1299V135.08" stroke="#E5E5E5" stroke-width="15" stroke-linecap="round"/>
</g>
<g id="Group 187">
<path id="Vector 3" d="M38.4453 178.763V192" stroke="#E5E5E5" stroke-width="15" stroke-linecap="round"/>
<path id="Vector 4" d="M104.633 178.763V192" stroke="#E5E5E5" stroke-width="15" stroke-linecap="round"/>
</g>
</g>
</svg>
