<svg width="28" height="28" viewBox="0 0 28 28" fill="none" xmlns="http://www.w3.org/2000/svg">
<path d="M8.16536 12.833L12.832 2.33301C13.7603 2.33301 14.6505 2.70176 15.3069 3.35813C15.9633 4.01451 16.332 4.90475 16.332 5.83301V10.4997H22.9354C23.2736 10.4958 23.6086 10.5656 23.9172 10.7041C24.2258 10.8426 24.5006 11.0465 24.7225 11.3018C24.9445 11.557 25.1083 11.8575 25.2026 12.1823C25.2969 12.5071 25.3195 12.8486 25.2687 13.183L23.6587 23.683C23.5743 24.2394 23.2917 24.7465 22.8629 25.111C22.4341 25.4755 21.8881 25.6727 21.3254 25.6663H8.16536M8.16536 12.833V25.6663M8.16536 12.833H4.66536C4.04653 12.833 3.45303 13.0788 3.01545 13.5164C2.57786 13.954 2.33203 14.5475 2.33203 15.1663V23.333C2.33203 23.9518 2.57786 24.5453 3.01545 24.9829C3.45303 25.4205 4.04653 25.6663 4.66536 25.6663H8.16536" stroke="#A3A3A3" strokeWidth="2" strokeLinecap="round" strokeLinejoin="round"/>
</svg>
