<svg width="20" height="21" viewBox="0 0 20 21" fill="none" xmlns="http://www.w3.org/2000/svg">
<path d="M17 10.5807C17.0027 11.4606 16.7628 12.3287 16.3 13.1141C15.7512 14.0552 14.9076 14.8468 13.8636 15.4003C12.8195 15.9537 11.6164 16.247 10.3889 16.2474C9.36231 16.2497 8.34964 16.0441 7.43333 15.6474L3 16.9141L4.47778 13.1141C4.01494 12.3287 3.7751 11.4606 3.77778 10.5807C3.77825 9.52858 4.12047 8.49731 4.76611 7.60244C5.41175 6.70758 6.3353 5.98446 7.43333 5.51408C8.34964 5.11737 9.36231 4.91179 10.3889 4.91408H10.7778C12.3989 4.99074 13.9301 5.57725 15.0782 6.56132C16.2263 7.54538 16.9105 8.85784 17 10.2474V10.5807Z" stroke="#A3A3A3" stroke-linecap="round" stroke-linejoin="round"/>
</svg>
