<svg width="50" height="40" viewBox="0 0 50 40" fill="none" xmlns="http://www.w3.org/2000/svg">
<path d="M34.3333 16.5H23.8333C22.5447 16.5 21.5 17.5447 21.5 18.8333V29.3333C21.5 30.622 22.5447 31.6667 23.8333 31.6667H34.3333C35.622 31.6667 36.6667 30.622 36.6667 29.3333V18.8333C36.6667 17.5447 35.622 16.5 34.3333 16.5Z" stroke="#262626" strokeWidth="2" strokeLinecap="round" strokeLinejoin="round"/>
<path d="M16.834 23.5002H15.6673C15.0485 23.5002 14.455 23.2543 14.0174 22.8167C13.5798 22.3792 13.334 21.7857 13.334 21.1668V10.6668C13.334 10.048 13.5798 9.4545 14.0174 9.01691C14.455 8.57933 15.0485 8.3335 15.6673 8.3335H26.1673C26.7862 8.3335 27.3796 8.57933 27.8172 9.01691C28.2548 9.4545 28.5007 10.048 28.5007 10.6668V11.8335" stroke="#262626" strokeWidth="2" strokeLinecap="round" strokeLinejoin="round"/>
<rect x="0.5" y="0.5" width="49" height="39" rx="19.5" stroke="#E5E5E5"/>
</svg>
