<svg width="140" height="196" viewBox="0 0 140 196" fill="none" xmlns="http://www.w3.org/2000/svg">
<g id="Group 192">
<g id="Group 186">
<rect id="Rectangle 278" x="6" y="36.4463" width="127.079" height="140.317" rx="20" stroke="#FFE457" stroke-width="12"/>
</g>
<path id="Rectangle 279" d="M41 35C41 26.619 41 22.4285 42.2362 19.0777C44.2613 13.5884 48.5884 9.26125 54.0777 7.23617C57.4285 6 61.619 6 70 6V6C78.381 6 82.5715 6 85.9223 7.23617C91.4116 9.26125 95.7387 13.5884 97.7638 19.0777C99 22.4285 99 26.619 99 35V36H41V35Z" stroke="#FFE457" stroke-width="12"/>
<g id="Group 188">
<path id="Vector 1" d="M43.0645 80.1299V133.08" stroke="#FFE457" stroke-width="12" stroke-linecap="round"/>
<path id="Vector 2" d="M96.0137 80.1299V133.08" stroke="#FFE457" stroke-width="12" stroke-linecap="round"/>
</g>
<g id="Group 187">
<path id="Vector 3" d="M36.4453 176.763V190" stroke="#FFE457" stroke-width="12" stroke-linecap="round"/>
<path id="Vector 4" d="M102.633 176.763V190" stroke="#FFE457" stroke-width="12" stroke-linecap="round"/>
</g>
</g>
</svg>
