<svg width="12" height="13" viewBox="0 0 12 13" fill="none" xmlns="http://www.w3.org/2000/svg">
<g clip-path="url(#clip0_2161_18674)">
<path d="M3.5 6.42076L5.5 1.87305C5.89782 1.87305 6.27936 2.03276 6.56066 2.31705C6.84196 2.60133 7 2.98691 7 3.38895V5.41016H9.83C9.97495 5.4085 10.1185 5.43871 10.2508 5.4987C10.383 5.55868 10.5008 5.64701 10.5959 5.75756C10.6911 5.86811 10.7613 5.99824 10.8017 6.13893C10.8421 6.27962 10.8518 6.42751 10.83 6.57235L10.14 11.1201C10.1038 11.3611 9.98272 11.5807 9.79895 11.7386C9.61519 11.8964 9.38116 11.9818 9.14 11.9791H3.5M3.5 6.42076V11.9791M3.5 6.42076H2C1.73478 6.42076 1.48043 6.52724 1.29289 6.71676C1.10536 6.90629 1 7.16334 1 7.43137V10.9685C1 11.2365 1.10536 11.4936 1.29289 11.6831C1.48043 11.8726 1.73478 11.9791 2 11.9791H3.5" stroke="#A3A3A3" stroke-linecap="round" stroke-linejoin="round"/>
</g>
<defs>
<clipPath id="clip0_2161_18674">
<rect width="12" height="12.1272" fill="white" transform="translate(0 0.863281)"/>
</clipPath>
</defs>
</svg>
